# xmcd
#
# Track frame offsets:
#	150
#	855
#	14795
#	28950
#	40665
#	57505
#	71795
#	86475
#	103927
#	123997
#	130542
#	139752
#	150890
#	158947
#
# Disc length: 2410 seconds
#
# Revision: 1
# Processed by: cddbd v1.5.1PL0 Copyright (c) Steve Scherf et al.
# Submitted via: CDex 1.50Beta5
#
DISCID=b209680e
DTITLE=山下達郎 - to a sandy beach
DYEAR=1900
DGENRE=
TTITLE0=BERRY LIPMAN/INTRO
TTITLE1=BERRY LIPMAN/MUSIC FOR LOVERS
TTITLE2=ARMANDO TROVAIOLI/SEI MESI DI FELICITA
TTITLE3=ARMANDO TROVAIOLI/ANNA
TTITLE4=PIERO PICCIONI/BRAZILIAN HERTHACHE
TTITLE5=LUIS BACALOV/BAIZO DE LA CARAMBOLA
TTITLE6=ARMANDO TROVAIOLI/GRACE
TTITLE7=LUIS BACALOV/PANAMENANDO
TTITLE8=ARMANDO TROVAIOLI/WOAMAN'S PARFUME
TTITLE9=VLADIMIR COSMA/MARLENE SASSEUR, NYMPHOMANE
TTITLE10=PIERO PICCIONI/AMAND'S TRAIN
TTITLE11=ENNIO MORRICONE/UNA STRANA COPPIA
TTITLE12=YASUHARU KONISHI/LE PORTE-PAROLE DU SOT(version Jazz)
TTITLE13=MANUEL DE SICA/PALO E MARIA
EXTD=
EXTT0=
EXTT1=
EXTT2=
EXTT3=
EXTT4=
EXTT5=
EXTT6=
EXTT7=
EXTT8=
EXTT9=
EXTT10=
EXTT11=
EXTT12=
EXTT13=
PLAYORDER=
